<svg xmlns="http://www.w3.org/2000/svg" xmlns:xlink="http://www.w3.org/1999/xlink" width="500" zoomAndPan="magnify" viewBox="0 0 375 374.999991" height="500" preserveAspectRatio="xMidYMid meet" version="1.0"><defs><clipPath id="a3e6bfde53"><path d="M 0 111 L 76 111 L 76 256 L 0 256 Z M 0 111 " clip-rule="nonzero"/></clipPath><clipPath id="371469a9a3"><path d="M -100.496094 181.929688 L -5.570312 87.003906 L 100.496094 193.070312 L 5.570312 287.996094 Z M -100.496094 181.929688 " clip-rule="nonzero"/></clipPath><clipPath id="5997133b79"><path d="M -100.496094 181.929688 L -5.570312 87.003906 L 100.496094 193.070312 L 5.570312 287.996094 Z M -100.496094 181.929688 " clip-rule="nonzero"/></clipPath><clipPath id="d7fb556f89"><path d="M -100.496094 181.929688 L -5.570312 87.003906 L 100.496094 193.070312 L 5.570312 287.996094 Z M -100.496094 181.929688 " clip-rule="nonzero"/></clipPath><clipPath id="48f14f9d3a"><path d="M 0 109 L 78 109 L 78 258 L 0 258 Z M 0 109 " clip-rule="nonzero"/></clipPath><clipPath id="5dd917cf1a"><path d="M -100.496094 181.929688 L -5.570312 87.003906 L 100.496094 193.070312 L 5.570312 287.996094 Z M -100.496094 181.929688 " clip-rule="nonzero"/></clipPath><clipPath id="a9eb5d0644"><path d="M -100.496094 181.929688 L -5.570312 87.003906 L 100.496094 193.070312 L 5.570312 287.996094 Z M -100.496094 181.929688 " clip-rule="nonzero"/></clipPath><clipPath id="b04e281cbb"><path d="M -100.496094 181.929688 L -5.570312 87.003906 L 100.496094 193.070312 L 5.570312 287.996094 Z M -100.496094 181.929688 " clip-rule="nonzero"/></clipPath><clipPath id="a63598bfa4"><path d="M 306 111 L 375 111 L 375 256 L 306 256 Z M 306 111 " clip-rule="nonzero"/></clipPath><clipPath id="2c82e8e60b"><path d="M 274.503906 181.929688 L 369.429688 87.003906 L 475.496094 193.070312 L 380.570312 287.996094 Z M 274.503906 181.929688 " clip-rule="nonzero"/></clipPath><clipPath id="22325df269"><path d="M 274.503906 181.929688 L 369.429688 87.003906 L 475.496094 193.070312 L 380.570312 287.996094 Z M 274.503906 181.929688 " clip-rule="nonzero"/></clipPath><clipPath id="15f3b4bde4"><path d="M 274.503906 181.929688 L 369.429688 87.003906 L 475.496094 193.070312 L 380.570312 287.996094 Z M 274.503906 181.929688 " clip-rule="nonzero"/></clipPath><clipPath id="b599872f20"><path d="M 305 109 L 375 109 L 375 258 L 305 258 Z M 305 109 " clip-rule="nonzero"/></clipPath><clipPath id="dff7cf2a7c"><path d="M 274.503906 181.929688 L 369.429688 87.003906 L 475.496094 193.070312 L 380.570312 287.996094 Z M 274.503906 181.929688 " clip-rule="nonzero"/></clipPath><clipPath id="c0ec31fbed"><path d="M 274.503906 181.929688 L 369.429688 87.003906 L 475.496094 193.070312 L 380.570312 287.996094 Z M 274.503906 181.929688 " clip-rule="nonzero"/></clipPath><clipPath id="b60fdfbaae"><path d="M 274.503906 181.929688 L 369.429688 87.003906 L 475.496094 193.070312 L 380.570312 287.996094 Z M 274.503906 181.929688 " clip-rule="nonzero"/></clipPath><clipPath id="569e3dbf8d"><path d="M 119 299 L 264 299 L 264 375 L 119 375 Z M 119 299 " clip-rule="nonzero"/></clipPath><clipPath id="ed16434779"><path d="M 87.003906 369.429688 L 181.929688 274.503906 L 287.996094 380.570312 L 193.070312 475.496094 Z M 87.003906 369.429688 " clip-rule="nonzero"/></clipPath><clipPath id="db79c37f81"><path d="M 87.003906 369.429688 L 181.929688 274.503906 L 287.996094 380.570312 L 193.070312 475.496094 Z M 87.003906 369.429688 " clip-rule="nonzero"/></clipPath><clipPath id="0e9ea5118d"><path d="M 87.003906 369.429688 L 181.929688 274.503906 L 287.996094 380.570312 L 193.070312 475.496094 Z M 87.003906 369.429688 " clip-rule="nonzero"/></clipPath><clipPath id="b7591078db"><path d="M 117 297 L 266 297 L 266 375 L 117 375 Z M 117 297 " clip-rule="nonzero"/></clipPath><clipPath id="ea993fafa9"><path d="M 87.003906 369.429688 L 181.929688 274.503906 L 287.996094 380.570312 L 193.070312 475.496094 Z M 87.003906 369.429688 " clip-rule="nonzero"/></clipPath><clipPath id="b89b264e6f"><path d="M 87.003906 369.429688 L 181.929688 274.503906 L 287.996094 380.570312 L 193.070312 475.496094 Z M 87.003906 369.429688 " clip-rule="nonzero"/></clipPath><clipPath id="45ae4e90e1"><path d="M 87.003906 369.429688 L 181.929688 274.503906 L 287.996094 380.570312 L 193.070312 475.496094 Z M 87.003906 369.429688 " clip-rule="nonzero"/></clipPath><clipPath id="9baa59329b"><path d="M 119 0 L 264 0 L 264 69 L 119 69 Z M 119 0 " clip-rule="nonzero"/></clipPath><clipPath id="251a8cf0e8"><path d="M 87.003906 -5.570312 L 181.929688 -100.496094 L 287.996094 5.570312 L 193.070312 100.496094 Z M 87.003906 -5.570312 " clip-rule="nonzero"/></clipPath><clipPath id="bde7b2e8a9"><path d="M 87.003906 -5.570312 L 181.929688 -100.496094 L 287.996094 5.570312 L 193.070312 100.496094 Z M 87.003906 -5.570312 " clip-rule="nonzero"/></clipPath><clipPath id="b32c34c0ba"><path d="M 87.003906 -5.570312 L 181.929688 -100.496094 L 287.996094 5.570312 L 193.070312 100.496094 Z M 87.003906 -5.570312 " clip-rule="nonzero"/></clipPath><clipPath id="90ee46fc8e"><path d="M 117 0 L 266 0 L 266 70 L 117 70 Z M 117 0 " clip-rule="nonzero"/></clipPath><clipPath id="fa22b0ac59"><path d="M 87.003906 -5.570312 L 181.929688 -100.496094 L 287.996094 5.570312 L 193.070312 100.496094 Z M 87.003906 -5.570312 " clip-rule="nonzero"/></clipPath><clipPath id="3ba35b833c"><path d="M 87.003906 -5.570312 L 181.929688 -100.496094 L 287.996094 5.570312 L 193.070312 100.496094 Z M 87.003906 -5.570312 " clip-rule="nonzero"/></clipPath><clipPath id="14b5174bf2"><path d="M 87.003906 -5.570312 L 181.929688 -100.496094 L 287.996094 5.570312 L 193.070312 100.496094 Z M 87.003906 -5.570312 " clip-rule="nonzero"/></clipPath></defs><rect x="-37.5" width="450" fill="#ffffff" y="-37.499999" height="449.999989" fill-opacity="1"/><rect x="-37.5" width="450" fill="#fffae6" y="-37.499999" height="449.999989" fill-opacity="1"/><g clip-path="url(#a3e6bfde53)"><g clip-path="url(#371469a9a3)"><g clip-path="url(#5997133b79)"><g clip-path="url(#d7fb556f89)"><path fill="#ffe400" d="M 74.160156 169.773438 C 75.253906 174.585938 75.828125 179.585938 75.878906 184.777344 C 76.253906 204.691406 69.539062 221.554688 55.722656 235.367188 C 41.910156 249.183594 25.058594 255.910156 5.171875 255.550781 C -14.71875 255.199219 -31.808594 247.875 -46.097656 233.582031 C -60.390625 219.292969 -67.714844 202.203125 -68.066406 182.3125 C -68.425781 162.425781 -61.699219 145.574219 -47.882812 131.761719 C -34.070312 117.945312 -17.230469 111.207031 2.636719 111.535156 C 7.636719 111.679688 12.449219 112.203125 17.066406 113.109375 L 2.132812 181.777344 Z M 14.640625 183.5625 L 18.214844 187.132812 L 64.726562 180.0625 C 65.15625 182.109375 65.394531 183.542969 65.441406 184.351562 C 65.582031 193.261719 64.105469 201.453125 61.011719 208.929688 L 65.441406 211.359375 C 68.96875 203.164062 70.632812 194.164062 70.441406 184.351562 L 70.015625 174.632812 Z M 14.640625 183.5625 " fill-opacity="1" fill-rule="nonzero"/></g></g></g></g><g clip-path="url(#48f14f9d3a)"><g clip-path="url(#5dd917cf1a)"><g clip-path="url(#a9eb5d0644)"><g clip-path="url(#b04e281cbb)"><path stroke-linecap="butt" transform="matrix(0.585353, -0.585353, 0.585353, 0.585353, -1057.307278, 998.148678)" fill="none" stroke-linejoin="round" d="M 1674.068354 258.896827 C 1670.891853 263.941857 1667.111417 268.703272 1662.720372 273.18107 C 1646.030396 290.511684 1625.890314 299.180328 1602.290115 299.176991 C 1578.689916 299.180328 1558.549833 290.531704 1541.869868 273.237793 C 1525.179892 255.947219 1516.838241 235.093091 1516.841578 210.678747 C 1516.838241 186.264402 1525.179892 165.410275 1541.869868 148.1197 C 1558.549833 130.825789 1578.689916 122.177165 1602.290115 122.180502 C 1625.890314 122.177165 1646.030396 130.805769 1662.720372 148.056304 C 1666.867841 152.450685 1670.531494 157.008564 1673.701321 161.726601 L 1602.290115 207.625702 Z M 1611.449248 219.834543 L 1611.452584 225.937295 L 1657.221556 259.627555 C 1655.840178 261.742998 1654.81916 263.171089 1654.168511 263.901817 C 1646.677709 271.632859 1638.419474 277.368579 1629.390471 281.112312 L 1631.098841 286.971487 C 1641.112159 282.984178 1650.221242 276.71793 1658.439437 268.172743 L 1666.377352 259.507435 Z M 1611.449248 219.834543 " stroke="#000000" stroke-width="4.17" stroke-opacity="1" stroke-miterlimit="2"/></g></g></g></g><g clip-path="url(#a63598bfa4)"><g clip-path="url(#2c82e8e60b)"><g clip-path="url(#22325df269)"><g clip-path="url(#15f3b4bde4)"><path fill="#ffe400" d="M 449.160156 169.773438 C 450.253906 174.585938 450.828125 179.585938 450.878906 184.777344 C 451.253906 204.691406 444.539062 221.554688 430.722656 235.367188 C 416.910156 249.183594 400.058594 255.910156 380.171875 255.550781 C 360.28125 255.199219 343.191406 247.875 328.902344 233.582031 C 314.609375 219.292969 307.285156 202.203125 306.933594 182.3125 C 306.574219 162.425781 313.300781 145.574219 327.117188 131.761719 C 340.929688 117.945312 357.769531 111.207031 377.636719 111.535156 C 382.636719 111.679688 387.449219 112.203125 392.066406 113.109375 L 377.132812 181.777344 Z M 389.640625 183.5625 L 393.214844 187.132812 L 439.726562 180.0625 C 440.15625 182.109375 440.394531 183.542969 440.441406 184.351562 C 440.582031 193.261719 439.105469 201.453125 436.011719 208.929688 L 440.441406 211.359375 C 443.96875 203.164062 445.632812 194.164062 445.441406 184.351562 L 445.015625 174.632812 Z M 389.640625 183.5625 " fill-opacity="1" fill-rule="nonzero"/></g></g></g></g><g clip-path="url(#b599872f20)"><g clip-path="url(#dff7cf2a7c)"><g clip-path="url(#c0ec31fbed)"><g clip-path="url(#b60fdfbaae)"><path stroke-linecap="butt" transform="matrix(0.585353, -0.585353, 0.585353, 0.585353, -682.307183, 998.148678)" fill="none" stroke-linejoin="round" d="M 1674.068273 258.896745 C 1670.891772 263.941776 1667.111336 268.70319 1662.72029 273.180988 C 1646.030315 290.511603 1625.890233 299.180247 1602.290033 299.17691 C 1578.689834 299.180247 1558.549752 290.531623 1541.869786 273.237712 C 1525.179811 255.947137 1516.83816 235.09301 1516.841496 210.678665 C 1516.83816 186.264321 1525.179811 165.410193 1541.869786 148.119619 C 1558.549752 130.825708 1578.689834 122.177084 1602.290033 122.180421 C 1625.890233 122.177084 1646.030315 130.805688 1662.72029 148.056222 C 1666.867759 152.450604 1670.531413 157.008482 1673.70124 161.72652 L 1602.290033 207.625621 Z M 1611.449166 219.834461 L 1611.452503 225.937213 L 1657.221474 259.627474 C 1655.840097 261.742916 1654.819079 263.171007 1654.16843 263.901736 C 1646.677627 271.632778 1638.419393 277.368497 1629.390389 281.11223 L 1631.09876 286.971406 C 1641.112077 282.984097 1650.22116 276.717849 1658.439355 268.172661 L 1666.37727 259.507354 Z M 1611.449166 219.834461 " stroke="#000000" stroke-width="4.17" stroke-opacity="1" stroke-miterlimit="2"/></g></g></g></g><g clip-path="url(#569e3dbf8d)"><g clip-path="url(#ed16434779)"><g clip-path="url(#db79c37f81)"><g clip-path="url(#0e9ea5118d)"><path fill="#ffe400" d="M 261.660156 357.273438 C 262.753906 362.085938 263.328125 367.085938 263.378906 372.277344 C 263.753906 392.191406 257.039062 409.054688 243.222656 422.867188 C 229.410156 436.683594 212.558594 443.410156 192.671875 443.050781 C 172.78125 442.699219 155.691406 435.375 141.402344 421.082031 C 127.109375 406.792969 119.785156 389.703125 119.433594 369.8125 C 119.074219 349.925781 125.800781 333.074219 139.617188 319.261719 C 153.429688 305.445312 170.269531 298.707031 190.136719 299.035156 C 195.136719 299.179688 199.949219 299.703125 204.566406 300.609375 L 189.632812 369.277344 Z M 202.140625 371.0625 L 205.714844 374.632812 L 252.226562 367.5625 C 252.65625 369.609375 252.894531 371.042969 252.941406 371.851562 C 253.082031 380.761719 251.605469 388.953125 248.511719 396.429688 L 252.941406 398.859375 C 256.46875 390.664062 258.132812 381.664062 257.941406 371.851562 L 257.515625 362.132812 Z M 202.140625 371.0625 " fill-opacity="1" fill-rule="nonzero"/></g></g></g></g><g clip-path="url(#b7591078db)"><g clip-path="url(#ea993fafa9)"><g clip-path="url(#b89b264e6f)"><g clip-path="url(#45ae4e90e1)"><path stroke-linecap="butt" transform="matrix(0.585353, -0.585353, 0.585353, 0.585353, -869.807218, 1185.648666)" fill="none" stroke-linejoin="round" d="M 1674.068293 258.896786 C 1670.891792 263.941817 1667.111356 268.703231 1662.72031 273.181029 C 1646.030335 290.511644 1625.890253 299.180288 1602.290053 299.176951 C 1578.689854 299.180288 1558.549772 290.531664 1541.869806 273.237753 C 1525.179831 255.947178 1516.83818 235.093051 1516.841516 210.678706 C 1516.83818 186.264362 1525.179831 165.410234 1541.869806 148.11966 C 1558.549772 130.825749 1578.689854 122.177125 1602.290053 122.180462 C 1625.890253 122.177125 1646.030335 130.805729 1662.72031 148.056263 C 1666.867779 152.450645 1670.531432 157.008523 1673.70126 161.726561 L 1602.290053 207.625662 Z M 1611.449186 219.834502 L 1611.452523 225.937254 L 1657.221494 259.627515 C 1655.840117 261.742957 1654.819099 263.171048 1654.16845 263.901777 C 1646.677647 271.632819 1638.419412 277.368538 1629.390409 281.112271 L 1631.098779 286.971447 C 1641.112097 282.984138 1650.22118 276.71789 1658.439375 268.172702 L 1666.37729 259.507395 Z M 1611.449186 219.834502 " stroke="#000000" stroke-width="4.17" stroke-opacity="1" stroke-miterlimit="2"/></g></g></g></g><g clip-path="url(#9baa59329b)"><g clip-path="url(#251a8cf0e8)"><g clip-path="url(#bde7b2e8a9)"><g clip-path="url(#b32c34c0ba)"><path fill="#ffe400" d="M 261.660156 -17.726562 C 262.753906 -12.914062 263.328125 -7.914062 263.378906 -2.722656 C 263.753906 17.191406 257.039062 34.054688 243.222656 47.867188 C 229.410156 61.683594 212.558594 68.410156 192.671875 68.050781 C 172.78125 67.699219 155.691406 60.375 141.402344 46.082031 C 127.109375 31.792969 119.785156 14.703125 119.433594 -5.1875 C 119.074219 -25.074219 125.800781 -41.925781 139.617188 -55.738281 C 153.429688 -69.554688 170.269531 -76.292969 190.136719 -75.964844 C 195.136719 -75.820312 199.949219 -75.296875 204.566406 -74.390625 L 189.632812 -5.722656 Z M 202.140625 -3.9375 L 205.714844 -0.367188 L 252.226562 -7.4375 C 252.65625 -5.390625 252.894531 -3.957031 252.941406 -3.148438 C 253.082031 5.761719 251.605469 13.953125 248.511719 21.429688 L 252.941406 23.859375 C 256.46875 15.664062 258.132812 6.664062 257.941406 -3.148438 L 257.515625 -12.867188 Z M 202.140625 -3.9375 " fill-opacity="1" fill-rule="nonzero"/></g></g></g></g><g clip-path="url(#90ee46fc8e)"><g clip-path="url(#fa22b0ac59)"><g clip-path="url(#3ba35b833c)"><g clip-path="url(#14b5174bf2)"><path stroke-linecap="butt" transform="matrix(0.585353, -0.585353, 0.585353, 0.585353, -869.807218, 810.648691)" fill="none" stroke-linejoin="round" d="M 1674.068314 258.896765 C 1670.891813 263.941796 1667.111377 268.70321 1662.720331 273.181008 C 1646.030356 290.511623 1625.890274 299.180267 1602.290074 299.17693 C 1578.689875 299.180267 1558.549793 290.531643 1541.869827 273.237732 C 1525.179852 255.947157 1516.838201 235.09303 1516.841537 210.678685 C 1516.838201 186.264341 1525.179852 165.410213 1541.869827 148.119639 C 1558.549793 130.825728 1578.689875 122.177104 1602.290074 122.180441 C 1625.890274 122.177104 1646.030356 130.805708 1662.720331 148.056242 C 1666.8678 152.450624 1670.531454 157.008502 1673.701281 161.72654 L 1602.290074 207.625641 Z M 1611.449207 219.834481 L 1611.452544 225.937233 L 1657.221515 259.627494 C 1655.840138 261.742936 1654.81912 263.171027 1654.168471 263.901756 C 1646.677668 271.632798 1638.419434 277.368517 1629.39043 281.11225 L 1631.098801 286.971426 C 1641.112118 282.984117 1650.221201 276.717868 1658.439396 268.172681 L 1666.377311 259.507374 Z M 1611.449207 219.834481 " stroke="#000000" stroke-width="4.17" stroke-opacity="1" stroke-miterlimit="2"/></g></g></g></g></svg>