<svg xmlns="http://www.w3.org/2000/svg" xmlns:xlink="http://www.w3.org/1999/xlink" width="500" zoomAndPan="magnify" viewBox="0 0 375 374.999991" height="500" preserveAspectRatio="xMidYMid meet" version="1.0"><defs><filter x="0%" y="0%" width="100%" height="100%" id="9f373c6149"><feColorMatrix values="0 0 0 0 1 0 0 0 0 1 0 0 0 0 1 0 0 0 1 0" color-interpolation-filters="sRGB"/></filter><mask id="1b9010b2f0"><g filter="url(#9f373c6149)"><rect x="-37.5" width="450" fill="#000000" y="-37.499999" height="449.999989" fill-opacity="0.4"/></g></mask><clipPath id="ec121a49c2"><path d="M 0 25 L 76 25 L 76 170 L 0 170 Z M 0 25 " clip-rule="nonzero"/></clipPath><clipPath id="de1185bd8e"><path d="M -100.496094 95.929688 L -5.570312 1.003906 L 100.496094 107.070312 L 5.570312 201.996094 Z M -100.496094 95.929688 " clip-rule="nonzero"/></clipPath><clipPath id="beb0a1f6a7"><path d="M -100.496094 95.929688 L -5.570312 1.003906 L 100.496094 107.070312 L 5.570312 201.996094 Z M -100.496094 95.929688 " clip-rule="nonzero"/></clipPath><clipPath id="fc9f14453d"><path d="M -100.496094 95.929688 L -5.570312 1.003906 L 100.496094 107.070312 L 5.570312 201.996094 Z M -100.496094 95.929688 " clip-rule="nonzero"/></clipPath><clipPath id="bbee2ce3e1"><path d="M 0 23 L 78 23 L 78 172 L 0 172 Z M 0 23 " clip-rule="nonzero"/></clipPath><clipPath id="080d7cd46e"><path d="M -100.496094 95.929688 L -5.570312 1.003906 L 100.496094 107.070312 L 5.570312 201.996094 Z M -100.496094 95.929688 " clip-rule="nonzero"/></clipPath><clipPath id="e6b925ad70"><path d="M -100.496094 95.929688 L -5.570312 1.003906 L 100.496094 107.070312 L 5.570312 201.996094 Z M -100.496094 95.929688 " clip-rule="nonzero"/></clipPath><clipPath id="b0a7e5b15e"><path d="M -100.496094 95.929688 L -5.570312 1.003906 L 100.496094 107.070312 L 5.570312 201.996094 Z M -100.496094 95.929688 " clip-rule="nonzero"/></clipPath><clipPath id="adb1ad4f12"><rect x="0" width="101" y="0" height="202"/></clipPath><mask id="870eed37d2"><g filter="url(#9f373c6149)"><rect x="-37.5" width="450" fill="#000000" y="-37.499999" height="449.999989" fill-opacity="0.4"/></g></mask><clipPath id="d1af360c59"><path d="M 32 25 L 101 25 L 101 170 L 32 170 Z M 32 25 " clip-rule="nonzero"/></clipPath><clipPath id="11cc17592c"><path d="M 0.503906 95.929688 L 95.429688 1.003906 L 201.496094 107.070312 L 106.570312 201.996094 Z M 0.503906 95.929688 " clip-rule="nonzero"/></clipPath><clipPath id="c4becf91b1"><path d="M 0.503906 95.929688 L 95.429688 1.003906 L 201.496094 107.070312 L 106.570312 201.996094 Z M 0.503906 95.929688 " clip-rule="nonzero"/></clipPath><clipPath id="fe16052ad9"><path d="M 0.503906 95.929688 L 95.429688 1.003906 L 201.496094 107.070312 L 106.570312 201.996094 Z M 0.503906 95.929688 " clip-rule="nonzero"/></clipPath><clipPath id="5a7216ce06"><path d="M 31 23 L 101 23 L 101 172 L 31 172 Z M 31 23 " clip-rule="nonzero"/></clipPath><clipPath id="6136f368a0"><path d="M 0.503906 95.929688 L 95.429688 1.003906 L 201.496094 107.070312 L 106.570312 201.996094 Z M 0.503906 95.929688 " clip-rule="nonzero"/></clipPath><clipPath id="bdeb002d6b"><path d="M 0.503906 95.929688 L 95.429688 1.003906 L 201.496094 107.070312 L 106.570312 201.996094 Z M 0.503906 95.929688 " clip-rule="nonzero"/></clipPath><clipPath id="a0a8c126c7"><path d="M 0.503906 95.929688 L 95.429688 1.003906 L 201.496094 107.070312 L 106.570312 201.996094 Z M 0.503906 95.929688 " clip-rule="nonzero"/></clipPath><clipPath id="171df3b2e0"><rect x="0" width="101" y="0" height="202"/></clipPath><mask id="6e8da0d3d6"><g filter="url(#9f373c6149)"><rect x="-37.5" width="450" fill="#000000" y="-37.499999" height="449.999989" fill-opacity="0.4"/></g></mask><clipPath id="a15e8cb7e3"><path d="M 33 25 L 178 25 L 178 101 L 33 101 Z M 33 25 " clip-rule="nonzero"/></clipPath><clipPath id="1f81ac2422"><path d="M 1.003906 95.429688 L 95.929688 0.503906 L 201.996094 106.570312 L 107.070312 201.496094 Z M 1.003906 95.429688 " clip-rule="nonzero"/></clipPath><clipPath id="c852d31221"><path d="M 1.003906 95.429688 L 95.929688 0.503906 L 201.996094 106.570312 L 107.070312 201.496094 Z M 1.003906 95.429688 " clip-rule="nonzero"/></clipPath><clipPath id="51a46590dd"><path d="M 1.003906 95.429688 L 95.929688 0.503906 L 201.996094 106.570312 L 107.070312 201.496094 Z M 1.003906 95.429688 " clip-rule="nonzero"/></clipPath><clipPath id="129eaa6a92"><path d="M 31 23 L 180 23 L 180 101 L 31 101 Z M 31 23 " clip-rule="nonzero"/></clipPath><clipPath id="b920f84df4"><path d="M 1.003906 95.429688 L 95.929688 0.503906 L 201.996094 106.570312 L 107.070312 201.496094 Z M 1.003906 95.429688 " clip-rule="nonzero"/></clipPath><clipPath id="4b52afa45e"><path d="M 1.003906 95.429688 L 95.929688 0.503906 L 201.996094 106.570312 L 107.070312 201.496094 Z M 1.003906 95.429688 " clip-rule="nonzero"/></clipPath><clipPath id="6be1948e67"><path d="M 1.003906 95.429688 L 95.929688 0.503906 L 201.996094 106.570312 L 107.070312 201.496094 Z M 1.003906 95.429688 " clip-rule="nonzero"/></clipPath><clipPath id="d17ca284e9"><rect x="0" width="202" y="0" height="101"/></clipPath><mask id="60cc5d93d1"><g filter="url(#9f373c6149)"><rect x="-37.5" width="450" fill="#000000" y="-37.499999" height="449.999989" fill-opacity="0.4"/></g></mask><clipPath id="3e353111a3"><path d="M 33 0 L 178 0 L 178 69 L 33 69 Z M 33 0 " clip-rule="nonzero"/></clipPath><clipPath id="429ec53324"><path d="M 1.003906 -5.570312 L 95.929688 -100.496094 L 201.996094 5.570312 L 107.070312 100.496094 Z M 1.003906 -5.570312 " clip-rule="nonzero"/></clipPath><clipPath id="2c89d1f0b9"><path d="M 1.003906 -5.570312 L 95.929688 -100.496094 L 201.996094 5.570312 L 107.070312 100.496094 Z M 1.003906 -5.570312 " clip-rule="nonzero"/></clipPath><clipPath id="8721420766"><path d="M 1.003906 -5.570312 L 95.929688 -100.496094 L 201.996094 5.570312 L 107.070312 100.496094 Z M 1.003906 -5.570312 " clip-rule="nonzero"/></clipPath><clipPath id="ed77960e78"><path d="M 31 0 L 180 0 L 180 70 L 31 70 Z M 31 0 " clip-rule="nonzero"/></clipPath><clipPath id="250f200f1e"><path d="M 1.003906 -5.570312 L 95.929688 -100.496094 L 201.996094 5.570312 L 107.070312 100.496094 Z M 1.003906 -5.570312 " clip-rule="nonzero"/></clipPath><clipPath id="e2c092f56b"><path d="M 1.003906 -5.570312 L 95.929688 -100.496094 L 201.996094 5.570312 L 107.070312 100.496094 Z M 1.003906 -5.570312 " clip-rule="nonzero"/></clipPath><clipPath id="cafb1a7aa7"><path d="M 1.003906 -5.570312 L 95.929688 -100.496094 L 201.996094 5.570312 L 107.070312 100.496094 Z M 1.003906 -5.570312 " clip-rule="nonzero"/></clipPath><clipPath id="d4c9f26f2f"><rect x="0" width="202" y="0" height="101"/></clipPath></defs><rect x="-37.5" width="450" fill="#ffffff" y="-37.499999" height="449.999989" fill-opacity="1"/><rect x="-37.5" width="450" fill="#fffae6" y="-37.499999" height="449.999989" fill-opacity="1"/><g mask="url(#1b9010b2f0)"><g transform="matrix(1, 0, 0, 1, 0, 86)"><g clip-path="url(#adb1ad4f12)"><g clip-path="url(#ec121a49c2)"><g clip-path="url(#de1185bd8e)"><g clip-path="url(#beb0a1f6a7)"><g clip-path="url(#fc9f14453d)"><path fill="#ffe400" d="M 74.160156 83.773438 C 75.253906 88.585938 75.828125 93.585938 75.878906 98.777344 C 76.253906 118.691406 69.539062 135.554688 55.722656 149.367188 C 41.910156 163.183594 25.058594 169.910156 5.171875 169.550781 C -14.71875 169.199219 -31.808594 161.875 -46.097656 147.582031 C -60.390625 133.292969 -67.714844 116.203125 -68.066406 96.3125 C -68.425781 76.425781 -61.699219 59.574219 -47.882812 45.761719 C -34.070312 31.945312 -17.230469 25.207031 2.636719 25.535156 C 7.636719 25.679688 12.449219 26.203125 17.066406 27.109375 L 2.132812 95.777344 Z M 14.640625 97.5625 L 18.214844 101.132812 L 64.726562 94.0625 C 65.15625 96.109375 65.394531 97.542969 65.441406 98.351562 C 65.582031 107.261719 64.105469 115.453125 61.011719 122.929688 L 65.441406 125.359375 C 68.96875 117.164062 70.632812 108.164062 70.441406 98.351562 L 70.015625 88.632812 Z M 14.640625 97.5625 " fill-opacity="1" fill-rule="nonzero"/></g></g></g></g><g clip-path="url(#bbee2ce3e1)"><g clip-path="url(#080d7cd46e)"><g clip-path="url(#e6b925ad70)"><g clip-path="url(#b0a7e5b15e)"><path stroke-linecap="butt" transform="matrix(0.585353, -0.585353, 0.585353, 0.585353, -1057.307278, 912.148678)" fill="none" stroke-linejoin="round" d="M 1674.068354 258.896827 C 1670.891853 263.941857 1667.111417 268.703272 1662.720372 273.18107 C 1646.030396 290.511684 1625.890314 299.180328 1602.290115 299.176991 C 1578.689916 299.180328 1558.549833 290.531704 1541.869868 273.237793 C 1525.179892 255.947219 1516.838241 235.093091 1516.841578 210.678747 C 1516.838241 186.264402 1525.179892 165.410275 1541.869868 148.1197 C 1558.549833 130.825789 1578.689916 122.177165 1602.290115 122.180502 C 1625.890314 122.177165 1646.030396 130.805769 1662.720372 148.056304 C 1666.867841 152.450685 1670.531494 157.008564 1673.701321 161.726601 L 1602.290115 207.625702 Z M 1611.449248 219.834543 L 1611.452584 225.937295 L 1657.221556 259.627555 C 1655.840178 261.742998 1654.81916 263.171089 1654.168511 263.901817 C 1646.677709 271.632859 1638.419474 277.368579 1629.390471 281.112312 L 1631.098841 286.971487 C 1641.112159 282.984178 1650.221242 276.71793 1658.439437 268.172743 L 1666.377352 259.507435 Z M 1611.449248 219.834543 " stroke="#000000" stroke-width="4.17" stroke-opacity="1" stroke-miterlimit="2"/></g></g></g></g></g></g></g><g mask="url(#870eed37d2)"><g transform="matrix(1, 0, 0, 1, 274, 86)"><g clip-path="url(#171df3b2e0)"><g clip-path="url(#d1af360c59)"><g clip-path="url(#11cc17592c)"><g clip-path="url(#c4becf91b1)"><g clip-path="url(#fe16052ad9)"><path fill="#ffe400" d="M 175.160156 83.773438 C 176.253906 88.585938 176.828125 93.585938 176.878906 98.777344 C 177.253906 118.691406 170.539062 135.554688 156.722656 149.367188 C 142.910156 163.183594 126.058594 169.910156 106.171875 169.550781 C 86.28125 169.199219 69.191406 161.875 54.902344 147.582031 C 40.609375 133.292969 33.285156 116.203125 32.933594 96.3125 C 32.574219 76.425781 39.300781 59.574219 53.117188 45.761719 C 66.929688 31.945312 83.769531 25.207031 103.636719 25.535156 C 108.636719 25.679688 113.449219 26.203125 118.066406 27.109375 L 103.132812 95.777344 Z M 115.640625 97.5625 L 119.214844 101.132812 L 165.726562 94.0625 C 166.15625 96.109375 166.394531 97.542969 166.441406 98.351562 C 166.582031 107.261719 165.105469 115.453125 162.011719 122.929688 L 166.441406 125.359375 C 169.96875 117.164062 171.632812 108.164062 171.441406 98.351562 L 171.015625 88.632812 Z M 115.640625 97.5625 " fill-opacity="1" fill-rule="nonzero"/></g></g></g></g><g clip-path="url(#5a7216ce06)"><g clip-path="url(#6136f368a0)"><g clip-path="url(#bdeb002d6b)"><g clip-path="url(#a0a8c126c7)"><path stroke-linecap="butt" transform="matrix(0.585353, -0.585353, 0.585353, 0.585353, -956.307183, 912.148678)" fill="none" stroke-linejoin="round" d="M 1674.068273 258.896745 C 1670.891772 263.941776 1667.111336 268.70319 1662.72029 273.180988 C 1646.030315 290.511603 1625.890233 299.180247 1602.290033 299.17691 C 1578.689834 299.180247 1558.549752 290.531623 1541.869786 273.237712 C 1525.179811 255.947137 1516.83816 235.09301 1516.841496 210.678665 C 1516.83816 186.264321 1525.179811 165.410193 1541.869786 148.119619 C 1558.549752 130.825708 1578.689834 122.177084 1602.290033 122.180421 C 1625.890233 122.177084 1646.030315 130.805688 1662.72029 148.056222 C 1666.867759 152.450604 1670.531413 157.008482 1673.70124 161.72652 L 1602.290033 207.625621 Z M 1611.449166 219.834461 L 1611.452503 225.937213 L 1657.221474 259.627474 C 1655.840097 261.742916 1654.819079 263.171007 1654.16843 263.901736 C 1646.677627 271.632778 1638.419393 277.368497 1629.390389 281.11223 L 1631.09876 286.971406 C 1641.112077 282.984097 1650.22116 276.717849 1658.439355 268.172661 L 1666.37727 259.507354 Z M 1611.449166 219.834461 " stroke="#000000" stroke-width="4.17" stroke-opacity="1" stroke-miterlimit="2"/></g></g></g></g></g></g></g><g mask="url(#6e8da0d3d6)"><g transform="matrix(1, 0, 0, 1, 86, 274)"><g clip-path="url(#d17ca284e9)"><g clip-path="url(#a15e8cb7e3)"><g clip-path="url(#1f81ac2422)"><g clip-path="url(#c852d31221)"><g clip-path="url(#51a46590dd)"><path fill="#ffe400" d="M 175.660156 83.273438 C 176.753906 88.085938 177.328125 93.085938 177.378906 98.277344 C 177.753906 118.191406 171.039062 135.054688 157.222656 148.867188 C 143.410156 162.683594 126.558594 169.410156 106.671875 169.050781 C 86.78125 168.699219 69.691406 161.375 55.402344 147.082031 C 41.109375 132.792969 33.785156 115.703125 33.433594 95.8125 C 33.074219 75.925781 39.800781 59.074219 53.617188 45.261719 C 67.429688 31.445312 84.269531 24.707031 104.136719 25.035156 C 109.136719 25.179688 113.949219 25.703125 118.566406 26.609375 L 103.632812 95.277344 Z M 116.140625 97.0625 L 119.714844 100.632812 L 166.226562 93.5625 C 166.65625 95.609375 166.894531 97.042969 166.941406 97.851562 C 167.082031 106.761719 165.605469 114.953125 162.511719 122.429688 L 166.941406 124.859375 C 170.46875 116.664062 172.132812 107.664062 171.941406 97.851562 L 171.515625 88.132812 Z M 116.140625 97.0625 " fill-opacity="1" fill-rule="nonzero"/></g></g></g></g><g clip-path="url(#129eaa6a92)"><g clip-path="url(#b920f84df4)"><g clip-path="url(#4b52afa45e)"><g clip-path="url(#6be1948e67)"><path stroke-linecap="butt" transform="matrix(0.585353, -0.585353, 0.585353, 0.585353, -955.807218, 911.648666)" fill="none" stroke-linejoin="round" d="M 1674.068293 258.896786 C 1670.891792 263.941817 1667.111356 268.703231 1662.72031 273.181029 C 1646.030335 290.511644 1625.890253 299.180288 1602.290053 299.176951 C 1578.689854 299.180288 1558.549772 290.531664 1541.869806 273.237753 C 1525.179831 255.947178 1516.83818 235.093051 1516.841516 210.678706 C 1516.83818 186.264362 1525.179831 165.410234 1541.869806 148.11966 C 1558.549772 130.825749 1578.689854 122.177125 1602.290053 122.180462 C 1625.890253 122.177125 1646.030335 130.805729 1662.72031 148.056263 C 1666.867779 152.450645 1670.531432 157.008523 1673.70126 161.726561 L 1602.290053 207.625662 Z M 1611.449186 219.834502 L 1611.452523 225.937254 L 1657.221494 259.627515 C 1655.840117 261.742957 1654.819099 263.171048 1654.16845 263.901777 C 1646.677647 271.632819 1638.419412 277.368538 1629.390409 281.112271 L 1631.098779 286.971447 C 1641.112097 282.984138 1650.22118 276.71789 1658.439375 268.172702 L 1666.37729 259.507395 Z M 1611.449186 219.834502 " stroke="#000000" stroke-width="4.17" stroke-opacity="1" stroke-miterlimit="2"/></g></g></g></g></g></g></g><g mask="url(#60cc5d93d1)"><g transform="matrix(1, 0, 0, 1, 86, 0)"><g clip-path="url(#d4c9f26f2f)"><g clip-path="url(#3e353111a3)"><g clip-path="url(#429ec53324)"><g clip-path="url(#2c89d1f0b9)"><g clip-path="url(#8721420766)"><path fill="#ffe400" d="M 175.660156 -17.726562 C 176.753906 -12.914062 177.328125 -7.914062 177.378906 -2.722656 C 177.753906 17.191406 171.039062 34.054688 157.222656 47.867188 C 143.410156 61.683594 126.558594 68.410156 106.671875 68.050781 C 86.78125 67.699219 69.691406 60.375 55.402344 46.082031 C 41.109375 31.792969 33.785156 14.703125 33.433594 -5.1875 C 33.074219 -25.074219 39.800781 -41.925781 53.617188 -55.738281 C 67.429688 -69.554688 84.269531 -76.292969 104.136719 -75.964844 C 109.136719 -75.820312 113.949219 -75.296875 118.566406 -74.390625 L 103.632812 -5.722656 Z M 116.140625 -3.9375 L 119.714844 -0.367188 L 166.226562 -7.4375 C 166.65625 -5.390625 166.894531 -3.957031 166.941406 -3.148438 C 167.082031 5.761719 165.605469 13.953125 162.511719 21.429688 L 166.941406 23.859375 C 170.46875 15.664062 172.132812 6.664062 171.941406 -3.148438 L 171.515625 -12.867188 Z M 116.140625 -3.9375 " fill-opacity="1" fill-rule="nonzero"/></g></g></g></g><g clip-path="url(#ed77960e78)"><g clip-path="url(#250f200f1e)"><g clip-path="url(#e2c092f56b)"><g clip-path="url(#cafb1a7aa7)"><path stroke-linecap="butt" transform="matrix(0.585353, -0.585353, 0.585353, 0.585353, -955.807218, 810.648691)" fill="none" stroke-linejoin="round" d="M 1674.068314 258.896765 C 1670.891813 263.941796 1667.111377 268.70321 1662.720331 273.181008 C 1646.030356 290.511623 1625.890274 299.180267 1602.290074 299.17693 C 1578.689875 299.180267 1558.549793 290.531643 1541.869827 273.237732 C 1525.179852 255.947157 1516.838201 235.09303 1516.841537 210.678685 C 1516.838201 186.264341 1525.179852 165.410213 1541.869827 148.119639 C 1558.549793 130.825728 1578.689875 122.177104 1602.290074 122.180441 C 1625.890274 122.177104 1646.030356 130.805708 1662.720331 148.056242 C 1666.8678 152.450624 1670.531454 157.008502 1673.701281 161.72654 L 1602.290074 207.625641 Z M 1611.449207 219.834481 L 1611.452544 225.937233 L 1657.221515 259.627494 C 1655.840138 261.742936 1654.81912 263.171027 1654.168471 263.901756 C 1646.677668 271.632798 1638.419434 277.368517 1629.39043 281.11225 L 1631.098801 286.971426 C 1641.112118 282.984117 1650.221201 276.717868 1658.439396 268.172681 L 1666.377311 259.507374 Z M 1611.449207 219.834481 " stroke="#000000" stroke-width="4.17" stroke-opacity="1" stroke-miterlimit="2"/></g></g></g></g></g></g></g></svg>